<svg width="30" height="26" viewBox="0 0 30 26" fill="none" xmlns="http://www.w3.org/2000/svg">
<g id="Group">
<path id="Vector" d="M29.4079 20.3409C29.4079 21.3381 29.1087 22.0987 28.5254 22.6388C27.9349 23.1798 27.1436 23.4506 26.1706 23.4506H17.4015C17.3183 23.4411 17.2337 23.436 17.1475 23.436C16.1681 23.436 15.6709 24.0495 15.3669 24.9132C15.3459 24.9727 15.2902 25.0134 15.2271 25.0134H14.19C14.1274 25.0134 14.0717 24.9735 14.0522 24.9141C13.8682 24.3533 13.7592 23.9013 13.2116 23.6571C12.9451 23.5185 12.6123 23.4506 12.2166 23.4506H3.23738C2.24755 23.4506 1.46503 23.1798 0.882524 22.6388C0.300015 22.0987 0 21.3381 0 20.3409C0 20.2254 0.00415368 20.1099 0.0127319 19.9974C0.0183919 19.9232 0.0811782 19.8672 0.155627 19.8672H1.36571C1.45905 19.8672 1.53191 19.9546 1.53092 20.0479C1.53073 20.0662 1.53073 20.0847 1.53073 20.1037C1.53073 20.5855 1.68037 20.9658 1.97966 21.2366C2.27894 21.5067 2.71254 21.6417 3.29431 21.6417H12.2648C13.2386 21.6417 14.0123 21.9125 14.6036 22.4615C14.6365 22.495 14.67 22.5294 14.6948 22.5637C14.7277 22.5294 14.762 22.4958 14.7949 22.4615C15.3854 21.9125 16.1679 21.6417 17.1336 21.6417H26.1122C26.6859 21.6417 27.1275 21.5067 27.4268 21.2366C27.7261 20.9658 27.8677 20.5855 27.8677 20.1037C27.8677 20.0847 27.8677 20.0662 27.8675 20.0479C27.8665 19.9546 27.9394 19.8672 28.0327 19.8672H29.2516C29.326 19.8672 29.3888 19.9232 29.3945 19.9974C29.4031 20.1097 29.4072 20.225 29.4072 20.3409H29.4079Z" fill="#FD5200"/>
<path id="Sun" d="M16.1205 19.8293C16.0768 19.8293 16.0682 19.7583 16.1101 19.746C18.217 19.1297 19.7899 17.1307 19.7899 14.8168C19.7877 11.9963 17.4869 9.68958 14.7255 9.69177C11.9487 9.71002 9.67778 12.0459 9.6953 14.8504C9.70987 17.1757 11.2746 19.1395 13.3824 19.7435C13.4244 19.7556 13.416 19.8273 13.3722 19.8274L10.0915 19.835C10.0149 19.8352 9.94108 19.8055 9.88726 19.751C8.65531 18.5031 7.88112 16.7828 7.83901 14.8942C7.76966 11.124 10.9399 7.84643 14.6831 7.80701C18.4264 7.76686 21.6375 11.0028 21.6462 14.7891C21.6434 16.6944 20.835 18.4704 19.5724 19.7508C19.5186 19.8054 19.4448 19.8352 19.3681 19.8351L16.1205 19.8293Z" fill="#FD5200"/>
<path id="Vector_2" d="M28.4916 14.7928C28.4916 15.2987 28.0894 15.7009 27.5835 15.7009H24.8016C24.3074 15.7009 23.8936 15.2987 23.8936 14.7928C23.8936 14.287 24.3074 13.8848 24.8016 13.8848H27.5835C28.0894 13.8848 28.4916 14.2987 28.4916 14.7928Z" fill="#FD5200"/>
<path id="Vector_3" d="M14.6981 0.984375C15.204 0.984375 15.6062 1.38658 15.6062 1.89245V4.67433C15.6062 5.16851 15.204 5.5824 14.6981 5.5824C14.1922 5.5824 13.79 5.16851 13.79 4.67433V1.89245C13.79 1.38658 14.2039 0.984375 14.6981 0.984375Z" fill="#FD5200"/>
<path id="Vector_4" d="M5.51892 14.7811C5.51892 15.287 5.11671 15.6892 4.61085 15.6892H1.82897C1.33479 15.6892 0.920898 15.287 0.920898 14.7811C0.920898 14.2753 1.33479 13.873 1.82897 13.873H4.61085C5.11671 13.873 5.51892 14.2869 5.51892 14.7811Z" fill="#FD5200"/>
<path id="Vector_5" d="M25.9224 3.56318C26.256 3.89604 26.2801 4.42454 25.9793 4.77419L22.8142 7.94076C22.4646 8.2415 21.9361 8.21741 21.6032 7.88382C21.2455 7.52614 21.2455 6.9575 21.6032 6.59982L24.6384 3.56318C24.9961 3.2055 25.5654 3.2055 25.9224 3.56318Z" fill="#FD5200"/>
<path id="Vector_6" d="M3.49192 3.56709C3.15833 3.89995 3.13424 4.42844 3.43499 4.77809L6.6001 7.94467C6.94975 8.24541 7.47824 8.22132 7.8111 7.88773C8.16878 7.53005 8.16878 6.96141 7.8111 6.60373L4.77593 3.56709C4.41824 3.20941 3.84887 3.20941 3.49192 3.56709Z" fill="#FD5200"/>
</g>
</svg>
