<svg width="33" height="33" viewBox="0 0 33 33" fill="none" xmlns="http://www.w3.org/2000/svg">
<circle cx="16.5" cy="16.5" r="16.5" fill="#FD5200"/>
<ellipse cx="16.4814" cy="16.3768" rx="13.3232" ry="11.7557" fill="#0A2540"/>
<path fill-rule="evenodd" clip-rule="evenodd" d="M13.9559 13.541C13.9559 15.5506 12.7207 17.1796 11.197 17.1796C9.67322 17.1796 8.43799 15.5506 8.43799 13.541C8.43799 11.5314 9.67322 9.90234 11.197 9.90234C12.7207 9.90234 13.9559 11.5314 13.9559 13.541ZM24.592 13.541C24.592 15.5506 23.3567 17.1796 21.833 17.1796C20.3093 17.1796 19.074 15.5506 19.074 13.541C19.074 11.5314 20.3093 9.90234 21.833 9.90234C23.3567 9.90234 24.592 11.5314 24.592 13.541ZM13.8683 19.9365C13.6244 19.6316 13.1794 19.5821 12.8744 19.8261C12.5695 20.0701 12.52 20.5151 12.764 20.82C13.2237 21.3947 14.5139 22.3649 16.4039 22.3649C18.2684 22.3649 19.6473 21.5152 20.29 20.8821C20.5682 20.608 20.5716 20.1603 20.2975 19.882C20.0235 19.6038 19.5758 19.6004 19.2975 19.8745C18.8774 20.2883 17.842 20.9507 16.4039 20.9507C14.9914 20.9507 14.0911 20.2149 13.8683 19.9365Z" fill="#FCFCFC"/>
</svg>
